<?xml version="1.0" standalone="no"?>
<!DOCTYPE svg PUBLIC "-//W3C//DTD SVG 20010904//EN"
 "http://www.w3.org/TR/2001/REC-SVG-20010904/DTD/svg10.dtd">
<svg version="1.0" xmlns="http://www.w3.org/2000/svg"
 width="1024.000000pt" height="1024.000000pt" viewBox="0 0 1024.000000 1024.000000"
 preserveAspectRatio="xMidYMid meet">

<g transform="translate(0.000000,1024.000000) scale(0.100000,-0.100000)"
fill="#000000" stroke="none">
<path d="M5625 9775 c-111 -28 -296 -95 -380 -137 -64 -33 -156 -97 -201 -140
l-41 -40 -39 20 c-69 34 -275 102 -419 138 -172 43 -270 53 -400 42 -158 -13
-228 -55 -359 -218 -45 -55 -72 -78 -113 -97 l-54 -25 -122 17 c-145 20 -221
14 -296 -22 -87 -42 -173 -140 -254 -291 -23 -42 -60 -102 -83 -132 -23 -30
-59 -89 -80 -130 -45 -85 -146 -214 -245 -310 -52 -50 -84 -72 -138 -93 -168
-67 -320 -206 -400 -364 -32 -63 -69 -183 -102 -328 -45 -202 -48 -207 -136
-260 -220 -134 -365 -298 -408 -460 -31 -122 -13 -210 85 -402 33 -64 64 -139
71 -168 l12 -53 -82 -93 c-127 -145 -183 -284 -165 -408 12 -81 46 -126 171
-225 80 -64 114 -105 146 -174 19 -41 21 -65 22 -202 0 -175 -2 -184 -85 -341
-83 -154 -102 -212 -104 -304 -1 -72 2 -87 32 -146 21 -44 63 -100 122 -164
108 -116 122 -140 122 -214 0 -148 -59 -258 -292 -540 -89 -107 -113 -168
-108 -269 3 -68 8 -83 76 -212 49 -95 72 -151 72 -175 0 -42 -61 -163 -155
-305 -38 -58 -91 -154 -119 -215 l-50 -110 -1 -115 0 -115 41 -80 c22 -44 67
-131 99 -194 l58 -114 -52 -101 c-28 -56 -71 -139 -96 -186 -67 -128 -89 -226
-89 -390 0 -125 3 -142 32 -231 18 -53 32 -114 32 -137 0 -36 -5 -45 -45 -77
-124 -102 -194 -305 -154 -447 l10 -38 69 0 70 0 0 68 c0 46 7 81 21 112 l20
44 27 -54 c23 -47 36 -60 85 -85 48 -25 57 -34 57 -57 l0 -28 138 0 139 0 0
118 c-1 164 36 299 121 446 34 58 35 59 47 35 7 -13 27 -73 45 -134 39 -134
44 -241 16 -355 -10 -41 -23 -83 -28 -92 -8 -17 67 -18 1522 -18 l1531 0 -5
23 -6 22 11 -22 c9 -18 21 -23 50 -23 l38 0 -83 248 c-94 278 -144 433 -241
737 -37 116 -79 246 -95 290 -54 155 -59 174 -47 178 9 3 9 8 0 18 -7 7 -13
18 -13 23 1 6 22 -12 48 -40 119 -129 300 -228 562 -307 l85 -26 38 -77 c21
-42 36 -79 33 -81 -10 -10 -285 70 -424 123 -79 30 -84 30 -36 -2 48 -33 136
-67 245 -94 46 -11 98 -26 114 -33 17 -6 34 -10 39 -9 5 2 26 0 47 -3 37 -6
37 -7 167 -253 187 -356 209 -404 201 -435 -5 -18 -3 -27 8 -31 21 -8 25 -7
18 4 -3 5 -2 25 4 44 7 29 6 38 -10 52 -10 9 -64 107 -120 218 -136 269 -336
638 -464 856 -229 391 -336 606 -386 780 -21 71 -25 135 -9 125 6 -3 10 -18
10 -32 0 -78 110 -337 257 -602 l79 -144 105 -42 c139 -56 219 -75 316 -75
128 0 244 42 357 128 135 104 173 263 87 372 -42 54 -47 68 -12 35 17 -16 43
-53 58 -83 22 -46 25 -61 20 -112 -18 -168 -195 -339 -394 -380 -111 -24 -309
8 -451 70 -24 11 -42 16 -40 12 2 -4 35 -61 74 -127 39 -66 82 -140 95 -164
28 -53 44 -59 180 -68 90 -5 99 -4 149 21 116 58 237 191 320 353 l41 78 -4
-52 c-2 -29 0 -53 4 -53 5 0 9 35 10 78 0 42 4 86 8 97 16 39 24 -75 18 -264
-8 -237 -37 -378 -174 -841 -24 -82 -58 -160 -69 -160 -3 0 -2 5 2 11 5 8 2 9
-12 1 -13 -7 -25 -6 -43 5 -23 13 -23 12 3 -10 24 -21 30 -33 29 -66 0 -22 3
-38 8 -35 5 3 9 14 9 26 0 11 8 32 19 46 33 48 77 165 110 292 18 69 41 153
51 188 11 34 36 142 55 240 31 152 36 199 38 329 1 84 5 153 8 153 21 0 89
-417 119 -730 20 -214 40 -533 40 -649 0 -66 3 -126 6 -135 6 -14 86 -16 810
-16 l804 0 -1 28 c0 15 -4 51 -8 79 -9 65 -4 61 34 -30 l31 -72 107 -3 108 -3
-70 104 c-38 57 -80 134 -92 170 -22 61 -23 70 -11 139 10 56 25 95 67 168 83
146 89 163 89 265 1 108 -19 158 -112 288 -96 132 -95 129 -90 291 6 164 22
225 120 446 91 208 83 197 86 104 2 -58 -2 -94 -14 -125 -82 -216 -87 -238
-88 -369 0 -117 2 -130 30 -201 17 -41 69 -131 116 -200 93 -135 126 -210 135
-303 5 -55 1 -73 -36 -171 -73 -192 -78 -320 -16 -382 31 -31 38 -33 102 -33
37 0 73 -4 79 -8 23 -15 34 -52 28 -92 -5 -27 -3 -40 5 -40 15 0 31 43 31 86
0 70 -32 102 -135 134 -81 25 -81 42 -4 157 99 147 135 253 127 374 -6 79 -32
140 -116 268 -124 188 -159 288 -149 433 4 63 13 94 51 178 104 231 112 374
35 649 -47 170 -41 212 72 472 82 191 93 241 92 429 -1 229 -33 383 -137 654
-42 108 -44 173 -11 337 28 133 28 145 17 247 -6 59 -14 118 -17 132 -9 34
169 -148 225 -230 66 -98 105 -188 104 -242 0 -40 -9 -60 -57 -132 -69 -105
-101 -191 -95 -263 6 -72 41 -114 131 -159 121 -61 132 -82 70 -139 -42 -38
-39 -54 7 -35 61 25 88 93 57 146 -7 11 -41 45 -77 76 -82 69 -125 128 -117
160 4 12 34 57 68 98 77 93 110 163 117 245 11 139 -41 251 -208 450 -143 171
-209 282 -230 395 -31 158 30 352 159 510 106 129 156 237 171 368 17 153 -21
285 -129 444 -33 49 -75 130 -96 183 -20 52 -58 128 -85 170 -41 61 -48 79
-41 97 5 13 24 69 41 126 29 89 32 112 28 180 -7 101 -54 204 -160 349 -74
101 -86 134 -76 198 5 31 24 88 44 126 102 204 82 354 -70 504 -109 107 -228
180 -470 285 -149 65 -179 98 -242 262 -73 191 -148 299 -242 347 -22 11 -72
29 -111 40 -39 11 -75 23 -81 26 -6 4 -33 41 -61 83 -68 102 -104 139 -164
169 -67 35 -162 41 -288 18 -116 -21 -123 -18 -190 74 -158 218 -296 289 -472
246z m878 -441 c44 -15 127 -89 127 -114 0 -6 -32 -10 -80 -10 l-80 0 -58 47
c-31 25 -57 51 -57 56 0 11 58 35 86 36 8 1 36 -6 62 -15z m-3112 -136 c22
-12 39 -24 39 -27 -1 -10 -240 -125 -246 -119 -17 18 73 133 121 154 40 18 41
17 86 -8z m4420 -1057 c69 -44 97 -75 105 -117 7 -40 -8 -97 -34 -126 -22 -25
-29 -22 -36 15 -3 17 -26 81 -51 142 -25 60 -45 111 -45 112 0 9 21 0 61 -26z
m-2107 -238 c-3 -12 3 -22 18 -28 13 -5 24 -18 26 -27 3 -14 -3 -18 -28 -18
-27 0 -32 3 -27 20 3 11 1 23 -4 26 -14 9 -10 44 5 44 9 0 12 -7 10 -17z m56
1 c0 -8 -4 -12 -10 -9 -5 3 -10 10 -10 16 0 5 5 9 10 9 6 0 10 -7 10 -16z
m249 -15 c-20 -12 -59 -11 -59 2 0 7 10 9 25 5 15 -4 25 -2 25 4 0 6 5 8 11 4
8 -4 7 -9 -2 -15z m-412 -15 c-3 -3 -12 -4 -19 -1 -8 3 -5 6 6 6 11 1 17 -2
13 -5z m-84 -11 c-7 -2 -19 -2 -25 0 -7 3 -2 5 12 5 14 0 19 -2 13 -5z m170
-13 c-3 -11 -9 -20 -14 -20 -5 0 -9 9 -9 20 0 11 6 20 14 20 9 0 12 -7 9 -20z
m-246 4 c-3 -3 -12 -4 -19 -1 -8 3 -5 6 6 6 11 1 17 -2 13 -5z m693 -3 c0 -12
-39 -21 -45 -11 -3 5 3 11 12 13 29 8 33 7 33 -2z m-177 -8 c-7 -2 -19 -2 -25
0 -7 3 -2 5 12 5 14 0 19 -2 13 -5z m245 -32 c28 -15 29 -41 1 -41 -17 0 -19
3 -10 13 6 8 8 17 4 20 -3 4 -12 2 -20 -4 -10 -9 -13 -6 -13 17 0 16 4 24 8
18 4 -6 17 -16 30 -23z m-963 -7 c-16 -14 -40 -29 -52 -34 -12 -5 -23 -19 -25
-32 -2 -17 -10 -23 -30 -24 -18 -1 -25 3 -21 12 3 8 9 12 13 9 5 -3 15 3 22
13 12 17 106 82 118 81 3 0 -8 -11 -25 -25z m25 -24 c0 -5 -7 -10 -16 -10 -8
0 -12 5 -9 10 3 6 10 10 16 10 5 0 9 -4 9 -10z m820 -10 c0 -13 147 -13 154
-1 9 15 45 0 51 -21 4 -10 14 -18 23 -17 49 4 71 -11 36 -25 -17 -6 -84 31
-84 47 0 4 -4 7 -10 7 -5 0 -10 -9 -10 -20 0 -11 7 -20 15 -20 8 0 15 -3 15
-6 0 -16 -38 -33 -72 -34 -21 0 -38 -4 -38 -10 0 -5 -18 -10 -40 -10 -22 0
-40 5 -40 10 0 6 -18 10 -40 10 l-40 0 0 50 0 50 40 0 c22 0 40 -4 40 -10z
m-880 -41 c0 -16 -4 -28 -9 -25 -8 5 -3 56 5 56 2 0 4 -14 4 -31z m640 21 c0
-5 -18 -10 -40 -10 -22 0 -40 5 -40 10 0 6 18 10 40 10 22 0 40 -4 40 -10z
m556 -59 c15 5 54 -12 54 -22 0 -5 6 -9 13 -9 18 0 69 -68 54 -73 -9 -3 -9
-10 2 -30 17 -31 35 -36 26 -7 -7 23 10 28 18 6 3 -8 4 -32 2 -53 -5 -46 9
-77 24 -54 8 12 12 13 25 1 27 -22 28 -5 1 20 -21 19 -25 21 -25 7 0 -9 -4
-17 -10 -17 -5 0 -10 7 -10 15 0 8 5 15 10 15 6 0 10 7 10 15 0 8 -5 15 -12
15 -6 0 -8 3 -4 7 6 6 64 -53 67 -67 4 -24 4 -77 1 -87 -2 -8 -21 -13 -43 -13
-39 0 -39 0 -39 40 0 33 -3 40 -20 40 -16 0 -20 7 -20 38 0 58 -22 82 -76 82
-37 0 -44 -3 -44 -20 0 -17 -7 -20 -40 -20 l-40 0 0 40 0 40 -40 0 -40 0 0 40
c0 39 1 40 34 40 18 0 49 6 67 14 21 9 36 11 40 5 3 -6 10 -9 15 -8z m-1217
-8 c3 -2 -17 -2 -43 -2 -27 2 -42 6 -34 10 11 7 67 2 77 -8z m341 7 c0 -6 -33
-10 -80 -10 -47 0 -80 4 -80 10 0 6 33 10 80 10 47 0 80 -4 80 -10z m-480 -34
c0 -3 -4 -8 -10 -11 -5 -3 -10 -1 -10 4 0 6 5 11 10 11 6 0 10 -2 10 -4z m-3
-73 c-4 -3 -13 2 -21 12 -8 12 -18 15 -27 10 -12 -8 -12 -6 -1 8 13 15 15 15
35 -3 11 -11 17 -23 14 -27z m-103 -64 c-14 -28 -28 -48 -31 -45 -5 5 44 96
52 96 2 0 -7 -23 -21 -51z m1553 9 c-3 -8 -6 -5 -6 6 -1 11 2 17 5 13 3 -3 4
-12 1 -19z m-1507 3 c0 -5 -9 -11 -21 -14 -16 -4 -18 -3 -8 9 13 16 29 19 29
5z m-34 -76 c-3 -8 -10 -15 -15 -15 -7 0 -6 10 1 26 12 26 25 16 14 -11z
m-100 -63 c-18 -16 -18 -16 -6 6 6 13 14 21 18 18 3 -4 -2 -14 -12 -24z m54
-14 c0 -6 -7 -8 -15 -4 -8 3 -15 1 -15 -4 0 -6 -5 -10 -10 -10 -6 0 -6 7 2 19
11 19 38 18 38 -1z m1798 -13 c-3 -3 -9 2 -12 12 -6 14 -5 15 5 6 7 -7 10 -15
7 -18z m-1578 5 c0 -5 -18 -10 -40 -10 -22 0 -40 5 -40 10 0 6 18 10 40 10 22
0 40 -4 40 -10z m1550 0 c0 -5 -4 -10 -10 -10 -5 0 -10 5 -10 10 0 6 5 10 10
10 6 0 10 -4 10 -10z m-1070 -50 l0 -40 40 0 40 0 0 40 0 40 60 0 60 0 0 -80
0 -80 60 0 60 0 0 40 0 40 80 0 80 0 0 -40 0 -40 80 0 80 0 0 -40 0 -40 40 0
40 0 0 -40 0 -40 -40 0 -40 0 0 -40 0 -40 40 0 40 0 0 -40 0 -40 -40 0 -40 0
0 -80 0 -80 -100 0 -100 0 0 -40 0 -40 60 0 60 0 0 -41 0 -40 58 2 c95 3 112
1 106 -16 -5 -11 -2 -13 10 -9 9 3 16 1 16 -5 0 -6 -6 -12 -12 -12 -7 -1 5 -5
27 -9 38 -7 38 -7 8 -9 -28 -1 -33 -5 -39 -36 -3 -19 -10 -32 -15 -29 -6 3 -7
-5 -3 -21 5 -19 3 -25 -7 -23 -9 2 -13 -5 -12 -22 1 -14 -3 -42 -9 -62 -11
-37 -12 -37 -26 -17 -11 16 -12 23 -3 28 9 6 8 15 -4 37 -15 29 -15 29 -11
-26 2 -30 2 -49 -1 -42 -3 8 -30 12 -84 12 l-79 0 0 50 0 50 -240 0 -240 0 0
40 0 40 -40 0 -40 0 0 40 0 40 -80 0 -80 0 0 80 0 80 -80 0 -80 0 0 80 0 80
-40 0 -40 0 0 120 0 120 40 0 40 0 0 80 0 80 40 0 40 0 0 40 0 40 160 0 160 0
0 -40z m-742 -23 c3 -12 -4 -17 -22 -17 -28 0 -33 9 -14 28 15 15 32 10 36
-11z m1880 -3 c14 -30 5 -84 -10 -62 -7 10 -8 8 -4 -5 3 -10 6 -31 6 -47 0
-17 7 -30 16 -34 25 -9 27 -1 10 32 -15 30 -12 72 6 72 6 0 8 -11 6 -25 -3
-13 -1 -22 3 -19 5 3 9 -4 9 -14 0 -11 7 -25 15 -32 10 -8 13 -22 9 -39 -3
-15 -2 -21 3 -14 5 7 19 -12 40 -54 18 -35 27 -63 20 -60 -7 2 -14 12 -15 23
-7 35 -22 40 -22 7 0 -21 8 -38 24 -50 13 -11 27 -33 31 -51 7 -32 25 -45 25
-17 0 8 -4 15 -10 15 -5 0 -10 10 -9 23 0 15 9 4 29 -37 16 -33 28 -62 25 -64
-8 -9 -26 11 -21 24 3 8 -1 14 -8 14 -9 0 -12 -8 -8 -25 2 -14 0 -25 -6 -25
-6 0 -12 10 -14 23 -2 14 -11 23 -25 25 -20 3 -23 9 -23 54 0 45 -2 50 -19 45
-17 -4 -18 -2 -11 19 6 15 5 26 -1 30 -8 4 -7 10 0 17 14 14 14 47 1 47 -5 0
-10 -11 -10 -25 0 -22 -4 -25 -40 -25 l-40 0 0 80 c0 73 -2 80 -20 80 -17 0
-20 7 -20 40 0 33 -3 40 -20 40 -13 0 -20 7 -20 20 0 17 7 20 43 20 37 0 46
-4 55 -26z m-1957 -43 c-13 -24 -14 -41 -2 -41 5 0 12 10 14 23 4 20 4 20 5
-3 1 -14 -5 -38 -13 -55 -13 -28 -14 -29 -9 -4 3 15 1 30 -5 33 -14 9 -14 27
0 63 6 15 13 23 16 16 2 -7 0 -21 -6 -32z m-2861 -40 c-5 -11 -35 -48 -65 -83
-101 -114 -145 -236 -145 -401 0 -42 -4 -66 -10 -62 -22 14 -90 144 -100 192
-13 61 3 139 45 223 22 44 34 54 95 85 59 30 150 62 183 64 4 1 3 -8 -3 -18z
m2840 -20 c0 -6 -4 -13 -10 -16 -5 -3 -10 1 -10 9 0 9 5 16 10 16 6 0 10 -4
10 -9z m-45 -100 c-4 -17 -11 -31 -16 -31 -12 0 -12 17 1 25 6 3 10 16 10 27
0 12 3 19 6 15 3 -3 3 -19 -1 -36z m-8 -103 c-3 -7 -5 -2 -5 12 0 14 2 19 5
13 2 -7 2 -19 0 -25z m-40 0 c-3 -8 -6 -5 -6 6 -1 11 2 17 5 13 3 -3 4 -12 1
-19z m3333 -55 c0 -18 -4 -33 -9 -33 -11 0 -21 36 -21 80 l1 35 14 -25 c8 -14
14 -40 15 -57z m-3366 -55 c-3 -4 -12 -8 -20 -8 -8 0 -14 4 -14 8 0 4 9 8 19
8 11 0 17 -4 15 -8z m-34 -32 c0 -3 -4 -8 -10 -11 -5 -3 -10 -1 -10 4 0 6 5
11 10 11 6 0 10 -2 10 -4z m17 -28 c-3 -8 -6 -5 -6 6 -1 11 2 17 5 13 3 -3 4
-12 1 -19z m-32 -8 c3 -5 1 -10 -4 -10 -6 0 -11 5 -11 10 0 6 2 10 4 10 3 0 8
-4 11 -10z m2320 -10 c7 0 16 6 19 13 3 8 12 4 27 -13 l22 -25 -7 25 c-3 14 5
3 18 -25 18 -36 21 -51 12 -53 -8 -2 -11 -14 -8 -31 4 -27 34 -51 65 -51 7 0
21 -15 32 -32 10 -18 25 -37 32 -41 7 -5 11 -12 8 -18 -4 -5 2 -9 11 -9 10 0
15 -3 12 -6 -11 -10 -103 -12 -120 -3 -10 5 -35 11 -55 13 -177 18 -173 16
-173 47 0 27 -3 29 -40 29 -22 0 -40 5 -40 10 0 6 18 10 40 10 l40 0 0 40 0
40 40 0 40 0 1 53 c0 28 3 46 6 40 2 -7 11 -13 18 -13z m-2355 -30 c0 -5 -6
-10 -14 -10 -7 0 -16 -9 -19 -20 -3 -12 -1 -20 6 -19 24 3 37 -1 37 -11 0 -5
-18 -10 -39 -10 -22 0 -41 -5 -44 -12 -2 -7 -7 -11 -10 -8 -7 7 61 100 73 100
6 0 10 -4 10 -10z m2474 -75 c3 -8 1 -15 -4 -15 -6 0 -10 7 -10 15 0 8 2 15 4
15 2 0 6 -7 10 -15z m-1984 -65 c0 -5 -18 -10 -40 -10 -22 0 -40 5 -40 10 0 6
18 10 40 10 22 0 40 -4 40 -10z m-197 -67 c-7 -2 -21 -2 -30 0 -10 3 -4 5 12
5 17 0 24 -2 18 -5z m397 -13 c-8 -5 -22 -9 -30 -9 -10 0 -8 3 5 9 27 12 43
12 25 0z m1335 0 l20 -9 -20 -1 c-14 -2 -10 -4 10 -9 19 -4 0 -7 -52 -8 -46 0
-83 4 -83 9 0 6 13 7 31 3 22 -5 29 -4 25 4 -5 7 4 9 26 5 25 -4 29 -3 18 5
-18 13 -3 13 25 1z m-2002 -7 c-7 -2 -19 -2 -25 0 -7 3 -2 5 12 5 14 0 19 -2
13 -5z m435 -8 c2 -2 -11 -5 -27 -7 -16 -2 -28 -1 -25 3 2 4 -2 10 -8 12 -7 3
3 3 22 0 19 -3 36 -7 38 -8z m89 -11 c-3 -3 -12 -4 -19 -1 -8 3 -5 6 6 6 11 1
17 -2 13 -5z m63 -4 c0 -5 -10 -10 -22 -10 -19 0 -20 2 -8 10 19 13 30 13 30
0z m84 -6 c9 -24 2 -26 -12 -4 -7 11 -8 20 -3 20 5 0 12 -7 15 -16z m1911 -4
c-3 -5 -12 -10 -18 -10 -7 0 -6 4 3 10 19 12 23 12 15 0z m-712 -7 c-7 -2 -19
-2 -25 0 -7 3 -2 5 12 5 14 0 19 -2 13 -5z m-1172 -54 c-5 -13 -10 -19 -10
-12 -1 15 10 45 15 40 3 -2 0 -15 -5 -28z m16 -31 c-3 -7 -5 -2 -5 12 0 14 2
19 5 13 2 -7 2 -19 0 -25z m13 -33 c0 -8 -4 -15 -9 -15 -13 0 -22 16 -14 24
11 11 23 6 23 -9z m129 -2 c-11 -13 -11 -17 -1 -20 21 -8 14 -43 -8 -43 -16 0
-20 -7 -20 -34 0 -30 -14 -55 -25 -45 -1 2 -6 39 -10 82 l-7 77 42 0 c38 0 41
-2 29 -17z m-87 -52 c11 -11 18 -25 15 -33 -4 -9 -6 -7 -6 5 -1 9 -5 17 -11
17 -14 0 -13 -8 6 -39 13 -21 14 -34 5 -61 -10 -34 -10 -33 -5 10 4 25 3 42
-1 38 -10 -9 -35 37 -35 63 0 24 6 24 32 0z m-22 -75 c-1 -20 -30 27 -30 48 0
18 3 16 15 -8 8 -15 15 -33 15 -40z m1032 -57 c18 -1 36 -1 41 0 4 0 7 -3 7
-9 0 -9 -42 -5 -79 6 -7 2 -20 -1 -27 -7 -10 -8 -14 -8 -14 0 0 6 5 11 11 11
7 0 0 9 -15 21 -14 11 -24 24 -21 29 3 5 18 -5 34 -21 20 -19 40 -29 63 -30z
m-1053 12 c-7 -21 -18 -30 -39 -33 -16 -2 -27 -1 -24 4 3 4 14 8 25 8 12 0 23
10 29 25 13 35 21 31 9 -4z m26 -2 c-5 -22 -3 -34 6 -40 10 -6 7 -8 -9 -6 -26
2 -26 1 -10 44 15 42 22 43 13 2z m941 -6 c-7 -7 -26 7 -26 19 0 6 6 6 15 -2
9 -7 13 -15 11 -17z m1045 -2 l23 -19 -12 -123 c-12 -124 -58 -415 -68 -431
-3 -4 -13 -8 -23 -8 -20 0 -34 32 -21 47 16 18 39 132 39 193 -1 36 4 94 10
130 6 36 11 102 11 148 0 45 4 82 9 82 5 0 19 -8 32 -19z m-1046 -29 c-3 -3
-11 0 -18 7 -9 10 -8 11 6 5 10 -3 15 -9 12 -12z m78 1 c-7 -2 -19 -2 -25 0
-7 3 -2 5 12 5 14 0 19 -2 13 -5z m1872 -192 c39 -116 -5 -316 -103 -464 -32
-48 -42 -35 -45 56 -2 56 3 73 42 155 55 117 63 184 32 293 -11 41 -21 79 -21
85 1 21 81 -84 95 -125z m-6628 -8 c-1 -54 2 -141 6 -193 l9 -95 -56 55 c-60
58 -83 109 -72 153 5 23 102 177 111 177 2 0 3 -44 2 -97z m3037 -238 c227
-59 390 -247 472 -545 36 -130 18 -391 -30 -422 -23 -16 -174 -58 -260 -73
-201 -35 -429 -7 -592 71 -73 35 -182 141 -217 209 -65 128 -82 304 -40 398
28 60 104 159 145 188 l32 23 -34 -49 c-99 -144 -112 -330 -34 -492 124 -259
439 -319 623 -118 85 94 135 237 129 369 l-3 61 -38 0 c-44 0 -58 16 -55 60 2
22 11 34 34 45 l31 16 -32 50 c-79 123 -239 199 -375 177 -66 -11 -74 -8 -32
9 98 40 184 47 276 23z m2290 -44 c57 -40 103 -106 128 -185 28 -86 27 -244
-1 -351 -41 -158 -141 -316 -237 -376 -92 -57 -263 -82 -377 -55 -91 21 -165
60 -171 89 -7 34 -14 117 -10 117 2 0 25 -16 51 -36 68 -52 109 -67 183 -68
54 -1 74 4 118 28 134 74 213 245 197 424 l-7 73 -33 -7 c-28 -5 -36 -2 -51
20 -14 22 -15 31 -5 52 6 14 20 28 31 31 24 6 24 7 6 42 -27 52 -130 131 -171
131 -22 0 -13 12 35 45 106 73 230 83 314 26z m-4056 -146 c33 -10 78 -37 126
-76 69 -55 125 -123 113 -135 -3 -3 -8 4 -12 17 -6 17 -9 19 -16 8 -5 -9 -9
-10 -9 -2 0 17 -55 26 -80 13 -16 -9 -22 -8 -27 6 -9 25 -69 76 -111 96 -80
38 -194 11 -226 -53 -9 -18 -16 -38 -16 -44 0 -7 -7 -18 -15 -25 -8 -7 -15
-24 -15 -38 0 -14 -3 -22 -7 -19 -3 4 -12 2 -20 -5 -7 -6 -16 -9 -18 -6 -9 9
24 88 61 149 69 114 153 149 272 114z m4380 -78 c-8 -54 -14 -67 -27 -65 -9 2
-21 18 -27 36 -5 18 -13 30 -17 26 -3 -3 -13 1 -21 9 -14 14 -13 16 12 22 15
3 41 14 57 25 16 10 30 18 31 17 1 -1 -3 -33 -8 -70z m-2868 3 c45 -45 11
-120 -54 -120 -25 0 -39 7 -50 22 -36 51 -5 118 54 118 17 0 39 -9 50 -20z
m2082 -87 c24 -21 23 -68 -2 -93 -36 -36 -85 -17 -96 38 -11 56 55 94 98 55z
m761 -115 c-12 -159 -8 -384 12 -597 23 -249 17 -408 -19 -543 -54 -201 -142
-362 -294 -534 -88 -99 -231 -219 -522 -440 -107 -81 -235 -180 -284 -220
-165 -133 -276 -183 -403 -184 -70 0 -171 15 -185 29 -4 3 46 6 110 6 117 0
117 0 204 42 76 37 251 154 357 241 19 15 39 29 45 31 19 7 91 75 88 84 -1 5
3 5 9 1 6 -3 14 -3 18 2 3 5 49 45 101 88 52 43 117 97 145 120 86 71 291 279
320 324 15 23 31 42 35 42 4 0 10 8 14 18 3 9 19 37 36 62 51 78 111 211 138
310 29 105 31 163 21 788 -4 246 -3 264 14 274 17 9 17 11 -4 29 -12 10 -25
19 -28 19 -4 0 -7 10 -8 22 -2 20 59 86 80 88 4 0 4 -46 0 -102z m-4060 -4
c-3 -7 -10 -11 -15 -8 -6 4 -5 10 3 15 13 8 5 13 -14 10 -5 -1 -6 3 -2 9 10
16 35 -8 28 -26z m21 -34 c-6 -6 -10 -3 -10 10 0 13 4 16 10 10 7 -7 7 -13 0
-20z m-14 -24 c0 -2 -8 -10 -17 -17 -16 -13 -17 -12 -4 4 13 16 21 21 21 13z
m720 -136 c0 -5 -2 -10 -4 -10 -3 0 -8 5 -11 10 -3 6 -1 10 4 10 6 0 11 -4 11
-10z m-1379 -217 c-12 -20 -14 -14 -5 12 4 9 9 14 11 11 3 -2 0 -13 -6 -23z
m46 5 c-3 -8 -6 -5 -6 6 -1 11 2 17 5 13 3 -3 4 -12 1 -19z m1403 -22 c0 -2
-8 -10 -17 -17 -16 -13 -17 -12 -4 4 13 16 21 21 21 13z m3127 -59 c24 -22 32
-36 25 -41 -7 -4 -30 10 -54 33 -31 30 -38 41 -25 41 9 0 34 -15 54 -33z
m-1041 -91 c11 -30 42 -74 77 -110 64 -66 72 -82 93 -169 10 -40 11 -64 4 -75
-8 -15 -9 -15 -10 4 0 23 -47 102 -75 124 -16 14 -17 13 -11 -7 5 -16 -1 -27
-30 -51 -83 -69 -230 -81 -338 -28 -30 15 -57 34 -60 43 -24 61 165 143 284
123 25 -4 52 -10 62 -14 14 -7 14 -3 -3 31 -20 42 -49 146 -49 178 0 55 24 33
56 -49z m1870 -3 c4 -39 1 -78 -10 -119 -9 -34 -16 -80 -16 -103 0 -77 -30
-34 -46 64 -11 73 37 268 58 232 4 -9 11 -42 14 -74z m-6133 -50 c31 -149 47
-251 47 -311 l0 -43 -60 89 c-58 86 -61 92 -67 170 -5 68 -2 92 17 151 12 39
26 71 30 71 4 0 19 -57 33 -127z m5237 92 c54 -20 80 -42 80 -66 0 -44 -44
-28 -125 47 -55 51 -48 53 45 19z m-2889 -14 c-21 -39 -91 -67 -91 -37 0 21
48 56 77 56 20 0 22 -3 14 -19z m2714 -30 c103 -48 163 -121 99 -121 -44 0
-164 89 -164 122 0 23 14 22 65 -1z m-4237 -31 c7 -11 9 -20 4 -20 -8 0 -42
36 -42 45 0 10 26 -7 38 -25z m4092 -17 c32 -40 38 -88 10 -88 -11 0 -80 104
-80 121 0 2 9 4 19 4 11 0 34 -17 51 -37z m-2455 18 c10 -17 -108 -111 -139
-111 -43 0 -2 75 59 108 25 14 72 15 80 3z m-1498 -33 c-3 -8 -6 -5 -6 6 -1
11 2 17 5 13 3 -3 4 -12 1 -19z m66 -47 c-4 -7 -34 21 -45 43 -7 15 -1 12 19
-9 16 -16 28 -32 26 -34z m1567 46 c0 -38 -118 -161 -145 -151 -20 8 -19 47 3
72 56 67 142 114 142 79z m180 -1 c0 -23 -46 -145 -60 -160 -22 -23 -50 -15
-50 14 0 48 65 150 96 150 8 0 14 -2 14 -4z m-1795 -26 c3 -5 1 -10 -4 -10 -6
0 -11 5 -11 10 0 6 2 10 4 10 3 0 8 -4 11 -10z m-67 -53 c8 -10 6 -13 -7 -13
-11 0 -17 6 -14 13 3 7 6 13 8 13 1 0 7 -6 13 -13z m35 -70 c-8 -13 -32 13
-26 29 4 12 8 12 18 -3 7 -10 11 -21 8 -26z m23 -15 c-18 -16 -18 -16 -6 6 6
13 14 21 18 18 3 -4 -2 -14 -12 -24z m423 -56 c79 -42 83 -170 6 -220 -31 -20
-65 -15 -103 15 -26 20 -23 25 7 10 13 -7 22 -5 34 9 13 16 14 19 1 24 -8 3
-12 1 -9 -4 4 -6 -6 -8 -24 -6 -17 2 -32 -2 -35 -9 -5 -14 53 -75 73 -75 7 0
9 -5 5 -11 -3 -6 -15 -8 -26 -6 -14 4 -18 2 -14 -9 8 -22 -18 -17 -41 9 -57
61 -67 166 -22 232 38 55 92 70 148 41z m3098 -68 c-3 -8 -6 -5 -6 6 -1 11 2
17 5 13 3 -3 4 -12 1 -19z m1069 -30 c81 -64 159 -203 195 -347 29 -115 24
-282 -10 -353 -26 -54 -82 -108 -111 -108 -28 0 -25 11 16 51 22 21 33 40 30
51 -2 10 0 16 4 13 9 -5 12 11 24 99 6 48 -10 183 -30 256 -24 85 -89 207
-137 257 -30 31 -43 52 -40 64 3 11 10 16 17 12 6 -4 5 1 -3 10 -21 26 9 22
45 -5z m-1878 -123 c-3 -3 -9 2 -12 12 -6 14 -5 15 5 6 7 -7 10 -15 7 -18z
m776 -1 c3 -8 2 -12 -4 -9 -6 3 -10 10 -10 16 0 14 7 11 14 -7z m-2906 -30
c-3 -35 -6 -37 -67 -59 -60 -22 -98 -24 -85 -4 3 5 10 6 16 3 7 -4 8 -2 4 4
-4 7 -3 12 2 12 16 0 84 31 79 36 -9 9 -97 -36 -128 -65 -30 -29 -30 -31 -10
-31 12 0 20 4 16 9 -3 5 -1 12 4 15 5 4 12 2 15 -3 4 -5 -10 -27 -29 -48 -81
-87 -134 -252 -116 -363 10 -64 55 -141 109 -192 16 -15 32 -36 35 -48 4 -16
0 -20 -21 -20 -41 1 -105 33 -135 70 -88 104 -109 252 -58 410 52 165 204 308
329 309 l43 1 -3 -36z m4302 -128 c31 -94 32 -105 27 -200 -3 -56 -10 -112
-15 -126 -9 -24 -10 -23 -22 20 -20 74 -60 273 -60 303 0 41 21 120 30 110 4
-4 22 -53 40 -107z m-1660 -75 c0 -5 -7 -12 -16 -15 -14 -5 -15 -4 -4 9 14 17
20 19 20 6z m420 -25 c0 -2 -8 -10 -17 -17 -16 -13 -17 -12 -4 4 13 16 21 21
21 13z m-577 -36 c4 -15 0 -20 -14 -20 -10 0 -19 5 -19 10 0 6 6 10 13 10 8 0
7 4 -3 10 -13 8 -13 10 1 10 9 0 19 -9 22 -20z m536 6 c9 -11 9 -16 -1 -22 -7
-4 -10 -4 -6 1 4 4 3 14 -3 22 -6 7 -9 13 -6 13 2 0 10 -6 16 -14z m-398 -54
c-13 -2 -27 0 -32 5 -6 6 3 7 23 4 28 -4 29 -6 9 -9z m-138 -2 c43 0 48 -10
13 -26 -26 -12 -72 -8 -82 7 -3 5 -17 9 -32 10 l-27 1 25 8 c14 5 34 7 45 4
11 -2 37 -4 58 -4z m80 3 c-7 -2 -19 -2 -25 0 -7 3 -2 5 12 5 14 0 19 -2 13
-5z m-520 -10 c-7 -2 -21 -2 -30 0 -10 3 -4 5 12 5 17 0 24 -2 18 -5z m674 1
c-3 -3 -12 -4 -19 -1 -8 3 -5 6 6 6 11 1 17 -2 13 -5z m-770 -10 c-3 -3 -12
-4 -19 -1 -8 3 -5 6 6 6 11 1 17 -2 13 -5z m888 -4 c3 -6 -1 -7 -9 -4 -18 7
-21 14 -7 14 6 0 13 -4 16 -10z m-28 -16 c-3 -3 -12 -4 -19 -1 -8 3 -5 6 6 6
11 1 17 -2 13 -5z m1022 -56 c23 -69 79 -158 99 -158 7 0 20 5 30 11 29 18 68
-4 76 -43 15 -71 19 -188 7 -188 -6 0 -11 16 -11 40 0 22 -9 54 -20 72 -11 18
-20 43 -20 56 0 12 -6 22 -13 22 -21 0 -39 -48 -45 -118 -4 -58 -3 -64 16 -69
19 -5 20 -7 6 -20 -8 -9 -13 -18 -10 -20 8 -8 105 18 113 30 3 6 5 37 4 70 -3
71 14 70 24 -2 6 -41 11 -50 31 -55 31 -8 44 -42 44 -111 0 -48 -3 -56 -28
-74 -26 -18 -96 -40 -129 -41 -7 0 -13 7 -13 15 0 18 -37 20 -42 3 -3 -7 -11
-9 -24 -4 -11 5 -14 10 -7 13 7 3 9 13 4 31 -4 15 -6 43 -4 62 4 30 0 38 -26
55 -35 23 -39 35 -13 35 16 0 18 7 14 53 -3 36 2 70 16 109 13 38 16 55 8 52
-16 -6 -63 41 -86 86 -30 59 -50 138 -37 144 7 2 13 5 14 5 0 1 11 -27 22 -61z
m-966 45 c-7 -2 -19 -2 -25 0 -7 3 -2 5 12 5 14 0 19 -2 13 -5z m-2728 -124
c-20 -76 -53 -139 -70 -133 -13 5 -30 -24 -20 -34 3 -3 5 0 5 6 0 7 5 12 11
12 18 0 -30 -53 -69 -77 -20 -13 -45 -23 -55 -23 -16 0 -17 -6 -11 -47 7 -50
14 -66 21 -47 2 7 12 10 22 7 15 -4 20 -19 26 -75 4 -41 3 -73 -3 -77 -5 -3
-14 -16 -20 -27 -8 -15 -18 -20 -36 -17 -13 3 -34 0 -45 -7 -34 -18 -130 -2
-158 26 -45 45 -25 184 26 184 10 0 22 10 26 23 7 19 9 16 14 -18 5 -36 9 -40
36 -43 52 -4 58 7 45 79 -15 81 -25 99 -55 99 -13 0 -27 5 -30 11 -11 17 2 21
27 8 21 -11 22 -11 9 4 -12 15 -11 17 7 17 11 0 25 -7 33 -16 28 -34 110 17
151 93 14 27 33 72 43 101 9 29 25 57 36 62 24 13 25 2 4 -66 -8 -27 -15 -53
-14 -59 0 -22 27 44 40 100 12 51 14 55 17 29 2 -18 -4 -60 -13 -95z m4485 -7
c12 -31 37 -127 56 -212 44 -202 46 -325 8 -456 -14 -49 -33 -106 -42 -128
l-18 -40 -26 75 c-15 41 -38 105 -53 143 -59 156 -71 314 -34 446 44 160 71
240 79 235 5 -3 18 -31 30 -63z m-1830 -36 c0 -13 -9 -34 -20 -47 l-19 -24 -1
36 c0 33 14 59 32 59 4 0 8 -11 8 -24z m-104 -42 c-3 -9 -6 -20 -6 -25 0 -15
-60 -40 -87 -37 -45 5 -37 26 19 52 64 29 82 32 74 10z m1397 -4 c-3 -11 -9
-17 -15 -14 -5 3 -4 12 3 20 16 19 18 18 12 -6z m-1720 -25 c51 -11 86 -23 84
-29 -2 -6 -18 -19 -36 -30 -50 -29 -134 -15 -179 30 -59 59 -38 64 131 29z
m-4071 -116 c-16 -41 -46 -121 -67 -179 -20 -58 -42 -109 -47 -115 -7 -7 -9
20 -6 80 3 69 10 103 30 145 28 62 110 170 115 153 2 -6 -9 -44 -25 -84z
m5792 -363 c23 -78 20 -256 -4 -256 -11 0 -27 54 -35 119 -7 61 4 191 16 191
4 0 15 -24 23 -54z m308 -309 c49 -136 68 -211 68 -271 l0 -50 -33 55 c-18 30
-54 86 -81 125 l-47 71 23 87 c13 47 25 86 28 86 3 0 22 -46 42 -103z m-527
-179 c10 -46 19 -123 19 -173 1 -98 -20 -213 -35 -198 -27 27 -36 453 -9 453
4 0 15 -37 25 -82z m439 -92 c64 -93 106 -186 106 -236 0 -28 -22 -111 -60
-223 -61 -182 -90 -310 -90 -400 0 -72 -14 -51 -45 68 -25 91 -27 117 -28 285
0 119 6 226 16 300 18 128 47 260 57 260 4 0 23 -24 44 -54z m-6117 -158 c-4
-79 -14 -177 -22 -218 -15 -78 -65 -230 -75 -230 -19 0 -90 198 -90 250 0 44
25 131 49 170 29 48 125 169 135 170 5 0 6 -60 3 -142z m3000 -90 c-54 -51
-65 -93 -49 -182 16 -83 51 -150 125 -237 65 -76 263 -264 278 -264 11 0 42
-45 36 -51 -16 -16 -165 90 -265 189 -85 83 -142 163 -173 245 -23 61 -36 182
-24 229 6 28 88 113 108 113 5 0 -11 -19 -36 -42z m-2542 -380 c12 -56 32
-234 27 -248 -12 -35 -75 -129 -83 -124 -16 10 -9 168 12 282 21 109 33 135
44 90z m5375 -384 c20 -76 25 -185 11 -234 -7 -24 -8 -23 -23 16 -32 80 -50
260 -32 309 6 15 8 16 16 1 5 -8 18 -50 28 -92z m-5880 -191 c10 -52 9 -80 -5
-165 -24 -151 -120 -427 -140 -406 -2 2 -10 68 -16 147 -9 113 -9 156 1 200
28 126 123 329 141 300 4 -7 13 -41 19 -76z m6391 -303 c52 -71 54 -77 53
-135 0 -46 -7 -73 -29 -115 -15 -30 -29 -50 -31 -45 -2 6 -8 60 -14 120 -6 61
-20 141 -31 180 -10 38 -19 74 -19 79 0 13 4 8 71 -84z m-6501 -666 c0 -39 -5
-96 -11 -128 l-12 -57 -33 32 c-31 30 -54 90 -54 140 0 30 90 115 102 97 4 -7
8 -45 8 -84z m5537 4 c-3 -8 -6 -5 -6 6 -1 11 2 17 5 13 3 -3 4 -12 1 -19z"/>
<path d="M6333 7683 c-8 -2 -13 -22 -13 -44 0 -32 4 -39 19 -39 15 0 20 9 23
45 3 44 -2 50 -29 38z"/>
<path d="M6415 7670 c-3 -5 -1 -10 4 -10 6 0 11 5 11 10 0 6 -2 10 -4 10 -3 0
-8 -4 -11 -10z"/>
<path d="M6440 7639 c0 -6 9 -13 20 -16 11 -3 18 -9 15 -13 -3 -5 -1 -11 4
-14 20 -13 21 14 1 34 -22 22 -40 26 -40 9z"/>
<path d="M6400 7621 c0 -5 7 -12 16 -15 14 -5 15 -4 4 9 -14 17 -20 19 -20 6z"/>
<path d="M6120 7080 c0 -33 3 -40 20 -40 17 0 20 7 20 40 0 33 -3 40 -20 40
-17 0 -20 -7 -20 -40z"/>
<path d="M6120 6520 c0 -33 3 -40 20 -40 17 0 20 7 20 40 0 33 -3 40 -20 40
-17 0 -20 -7 -20 -40z"/>
<path d="M6316 6485 c-3 -9 -6 -22 -5 -28 0 -7 5 -1 10 12 5 13 8 26 5 28 -2
2 -6 -3 -10 -12z"/>
<path d="M6270 6364 c5 -20 6 -44 3 -53 -4 -14 -4 -15 6 0 11 17 4 89 -9 89
-4 0 -4 -16 0 -36z"/>
<path d="M6720 7285 c0 -8 4 -15 10 -15 5 0 7 7 4 15 -4 8 -8 15 -10 15 -2 0
-4 -7 -4 -15z"/>
<path d="M6960 6751 c0 -6 5 -13 10 -16 6 -3 10 1 10 9 0 9 -4 16 -10 16 -5 0
-10 -4 -10 -9z"/>
<path d="M6962 6690 c0 -19 2 -27 5 -17 2 9 2 25 0 35 -3 9 -5 1 -5 -18z"/>
<path d="M7043 6609 c9 -33 -3 -49 -37 -50 l-31 -1 29 -8 c16 -5 34 -6 39 -3
6 3 8 2 4 -3 -3 -5 12 -9 32 -9 23 0 38 4 38 12 0 8 -10 10 -27 6 -20 -3 -29
0 -34 12 -5 15 -4 16 9 5 25 -21 29 -3 5 29 -25 36 -35 39 -27 10z"/>
<path d="M7145 5300 c-3 -5 -1 -10 5 -10 7 0 10 -7 6 -15 -3 -8 -1 -15 3 -15
12 0 23 29 15 41 -7 12 -21 11 -29 -1z"/>
<path d="M3160 4235 c0 -8 4 -15 10 -15 5 0 7 7 4 15 -4 8 -8 15 -10 15 -2 0
-4 -7 -4 -15z"/>
<path d="M5750 3820 c8 -5 26 -10 39 -10 32 0 24 6 -19 14 -25 4 -31 3 -20 -4z"/>
<path d="M3240 3438 c0 -10 18 -9 45 2 16 6 14 8 -12 7 -18 0 -33 -4 -33 -9z"/>
<path d="M5858 1314 c2 -29 -3 -82 -11 -116 -8 -35 -18 -99 -21 -143 l-5 -80
14 65 c8 36 13 71 10 78 -3 7 0 10 6 6 7 -4 10 7 8 34 -2 23 0 44 4 48 9 10 9
152 0 157 -5 3 -6 -19 -5 -49z"/>
<path d="M5774 1179 c-27 -29 -148 -121 -215 -162 -44 -28 -126 -47 -207 -47
-55 0 -73 -3 -69 -12 9 -26 193 -5 262 29 47 24 243 174 260 200 22 33 4 28
-31 -8z"/>
<path d="M5800 905 c-6 -31 -10 -59 -7 -61 2 -2 9 21 16 52 6 32 9 59 7 61 -2
3 -10 -21 -16 -52z"/>
<path d="M5310 615 c0 -5 5 -17 10 -25 5 -8 10 -10 10 -5 0 6 -5 17 -10 25 -5
8 -10 11 -10 5z"/>
<path d="M5510 195 c-7 -8 -16 -36 -21 -61 -7 -37 -5 -55 11 -90 17 -39 23
-44 51 -44 l31 0 -36 40 c-32 35 -36 46 -36 93 0 29 5 58 12 65 7 7 9 12 6 12
-3 0 -11 -7 -18 -15z"/>
<path d="M5618 193 c7 -3 16 -2 19 1 4 3 -2 6 -13 5 -11 0 -14 -3 -6 -6z"/>
<path d="M5540 159 c0 -5 5 -7 10 -4 6 3 10 8 10 11 0 2 -4 4 -10 4 -5 0 -10
-5 -10 -11z"/>
<path d="M5646 161 c-4 -5 3 -7 14 -4 16 4 20 0 20 -21 0 -34 -24 -82 -45 -90
-14 -5 -38 16 -93 83 -9 11 -8 6 2 -14 8 -16 28 -43 45 -59 29 -27 31 -28 54
-13 30 20 60 81 52 107 -6 20 -39 27 -49 11z"/>
<path d="M5577 129 c7 -7 15 -10 18 -7 3 3 -2 9 -12 12 -14 6 -15 5 -6 -5z"/>
<path d="M5722 73 c-7 -23 -23 -50 -35 -58 -20 -15 -20 -16 -3 -13 25 4 58 60
54 90 -2 18 -6 14 -16 -19z"/>
</g>
</svg>
